<svg width="24" height="18" viewBox="0 0 24 18" fill="none" xmlns="http://www.w3.org/2000/svg">
<path d="M20.8184 17.929C20.3682 17.9382 19.926 17.8094 19.5512 17.5599C19.2723 17.3777 18.9462 17.2806 18.613 17.2806C18.2797 17.2806 17.9537 17.3777 17.6747 17.5599C17.2961 17.801 16.8566 17.929 16.4077 17.929C15.9589 17.929 15.5194 17.801 15.1408 17.5599C14.8618 17.3775 14.5357 17.2803 14.2023 17.2803C13.869 17.2803 13.5429 17.3775 13.2639 17.5599C12.8853 17.801 12.4458 17.929 11.9969 17.929C11.5481 17.929 11.1086 17.801 10.7299 17.5599C10.4512 17.3776 10.1253 17.2805 9.79216 17.2805C9.45904 17.2805 9.13315 17.3776 8.85438 17.5599C8.5111 17.7881 8.1105 17.9149 7.69848 17.9258L7.67578 17.2771C7.98012 17.2699 8.27566 17.1736 8.52584 17.0002C8.90435 16.7592 9.34376 16.6312 9.79248 16.6312C10.2412 16.6312 10.6806 16.7592 11.0591 17.0002C11.3381 17.1825 11.6641 17.2796 11.9974 17.2796C12.3307 17.2796 12.6567 17.1825 12.9357 17.0002C13.3143 16.7589 13.754 16.6308 14.203 16.6308C14.6519 16.6308 15.0916 16.7589 15.4703 17.0002C15.7492 17.1825 16.0753 17.2796 16.4085 17.2796C16.7418 17.2796 17.0679 17.1825 17.3468 17.0002C17.7255 16.7592 18.165 16.6312 18.6138 16.6312C19.0626 16.6312 19.5021 16.7592 19.8808 17.0002C20.1604 17.1829 20.4872 17.2803 20.8213 17.2803C21.1554 17.2803 21.4822 17.1829 21.7618 17.0002C22.1362 16.7514 22.5776 16.6228 23.027 16.6317V17.2804C22.6924 17.2712 22.3636 17.369 22.0884 17.5596C21.7127 17.8095 21.2695 17.9384 20.8184 17.929Z" fill="white"/>
<path d="M3.17855 17.9287C2.72849 17.938 2.28638 17.8092 1.91174 17.5596C1.63661 17.3689 1.30779 17.2709 0.973145 17.2801V16.6314C1.42331 16.6221 1.86554 16.7509 2.24028 17.0005C2.51525 17.1913 2.84399 17.2892 3.17855 17.2801C3.51326 17.2893 3.84214 17.1912 4.11714 17.0002C4.49108 16.7507 4.93258 16.622 5.38201 16.6314C5.82054 16.6216 6.25182 16.7444 6.6193 16.9839L6.29206 17.5437C6.02363 17.3631 5.70543 17.2709 5.38201 17.2801C5.04868 17.2711 4.7212 17.3688 4.44731 17.559C4.07224 17.8093 3.62935 17.9383 3.17855 17.9287Z" fill="white"/>
<path d="M20.8195 15.6581C20.3691 15.6673 19.9266 15.5386 19.5514 15.2891C19.2722 15.1066 18.9459 15.0094 18.6123 15.0094C18.2788 15.0094 17.9525 15.1066 17.6733 15.2891C17.2947 15.53 16.8552 15.658 16.4064 15.658C15.9577 15.658 15.5182 15.53 15.1396 15.2891C14.8608 15.1067 14.5349 15.0096 14.2017 15.0096C13.8685 15.0096 13.5426 15.1067 13.2637 15.2891C12.8852 15.5301 12.4457 15.6582 11.9969 15.6582C11.5481 15.6582 11.1087 15.5301 10.7301 15.2891C10.4513 15.1067 10.1253 15.0096 9.79217 15.0096C9.45901 15.0096 9.13306 15.1067 8.85423 15.2891C8.47961 15.5387 8.03748 15.6675 7.58742 15.6581C7.13735 15.6675 6.69523 15.5387 6.3206 15.2891C6.04573 15.0983 5.71711 15.0004 5.38266 15.0095C5.04832 15.0004 4.71981 15.0984 4.44504 15.2891C4.07101 15.5384 3.62959 15.6672 3.18017 15.6581C2.73 15.6675 2.28778 15.5387 1.91304 15.2891C1.63761 15.0979 1.30825 15 0.973145 15.0095V14.3608C1.42321 14.3515 1.86532 14.4804 2.23996 14.7299C2.51508 14.9207 2.8439 15.0186 3.17855 15.0095C3.51289 15.0186 3.8414 14.9206 4.11617 14.7299C4.4902 14.4806 4.93161 14.3518 5.38104 14.3608C5.83144 14.3513 6.27393 14.4801 6.64882 14.7299C6.9238 14.9207 7.25253 15.0187 7.58709 15.0095C7.92165 15.0187 8.25039 14.9207 8.52536 14.7299C8.9039 14.4888 9.34338 14.3608 9.79217 14.3608C10.241 14.3608 10.6804 14.4888 11.059 14.7299C11.3379 14.9123 11.6639 15.0094 11.9971 15.0094C12.3303 15.0094 12.6563 14.9123 12.9352 14.7299C13.3137 14.4888 13.7532 14.3608 14.202 14.3608C14.6508 14.3608 15.0903 14.4888 15.4688 14.7299C15.7477 14.9123 16.0737 15.0094 16.4069 15.0094C16.7402 15.0094 17.0662 14.9123 17.345 14.7299C17.724 14.4889 18.1637 14.3609 18.6128 14.3609C19.0619 14.3609 19.5017 14.4889 19.8806 14.7299C20.16 14.9123 20.4864 15.0093 20.82 15.0093C21.1536 15.0093 21.48 14.9123 21.7594 14.7299C22.1345 14.4805 22.5769 14.3517 23.0272 14.3608V15.0095C22.6919 15 22.3623 15.098 22.0867 15.2891C21.7118 15.5384 21.2696 15.6671 20.8195 15.6581Z" fill="white"/>
<path d="M20.8184 13.3885C20.3683 13.3977 19.9261 13.2689 19.5513 13.0194C19.2762 12.8287 18.9473 12.7308 18.6127 12.7399C18.3671 12.7314 18.1232 12.7838 17.9028 12.8923L17.6167 12.3085C17.9263 12.1568 18.268 12.0819 18.6127 12.0903C19.0634 12.0811 19.5061 12.2102 19.8811 12.4603C20.1608 12.6431 20.4876 12.7405 20.8217 12.7405C21.1558 12.7405 21.4826 12.6431 21.7622 12.4603C22.1364 12.2114 22.5777 12.0826 23.0271 12.0912V12.7399C22.6925 12.7307 22.3637 12.8285 22.0885 13.0191C21.7128 13.269 21.2696 13.3979 20.8184 13.3885Z" fill="white"/>
<path d="M16.4045 13.3884C15.9551 13.3979 15.5136 13.2692 15.1396 13.0197C14.8607 12.8372 14.5345 12.74 14.2012 12.74C13.8679 12.74 13.5417 12.8372 13.2628 13.0197C12.8842 13.2607 12.4446 13.3888 11.9958 13.3888C11.547 13.3888 11.1074 13.2607 10.7288 13.0197C10.4499 12.8373 10.1238 12.7402 9.79055 12.7402C9.45728 12.7402 9.13123 12.8373 8.85228 13.0197C8.47772 13.2689 8.0359 13.3975 7.58612 13.3884C7.13605 13.3978 6.69395 13.2689 6.31931 13.0194C6.04418 12.8286 5.71536 12.7307 5.38071 12.7398C5.04739 12.7308 4.7199 12.8285 4.44601 13.0187C4.07131 13.2687 3.62892 13.3978 3.17855 13.3884C2.72849 13.3978 2.28638 13.2689 1.91174 13.0194C1.63661 12.8286 1.30779 12.7307 0.973145 12.7398V12.0912C1.42331 12.0818 1.86554 12.2106 2.24028 12.4602C2.51525 12.651 2.84399 12.749 3.17855 12.7398C3.51326 12.749 3.84214 12.6509 4.11714 12.4599C4.49109 12.2104 4.93258 12.0817 5.38201 12.0912C5.83207 12.0819 6.27417 12.2107 6.64882 12.4602C6.9238 12.651 7.25253 12.749 7.58709 12.7398C7.92174 12.7489 8.25056 12.651 8.52569 12.4602C8.9043 12.2192 9.34382 12.0911 9.79266 12.0911C10.2415 12.0911 10.681 12.2192 11.0596 12.4602C11.3386 12.6426 11.6646 12.7397 11.9979 12.7397C12.3312 12.7397 12.6572 12.6426 12.9362 12.4602C13.3148 12.219 13.7545 12.0909 14.2035 12.0909C14.6524 12.0909 15.0921 12.219 15.4708 12.4602C15.7565 12.6524 16.0953 12.7501 16.4395 12.7395C16.4646 12.7398 16.4896 12.7385 16.5144 12.7356L16.6007 13.3784C16.5356 13.386 16.4701 13.3893 16.4045 13.3884Z" fill="white"/>
<path d="M20.8195 11.1181C20.3691 11.1273 19.9266 10.9985 19.5514 10.749C19.2722 10.5666 18.9459 10.4694 18.6123 10.4694C18.2788 10.4694 17.9525 10.5666 17.6733 10.749C17.2947 10.99 16.8552 11.118 16.4064 11.118C15.9577 11.118 15.5182 10.99 15.1396 10.749C14.8608 10.5667 14.5349 10.4696 14.2017 10.4696C13.8685 10.4696 13.5426 10.5667 13.2637 10.749C12.8852 10.9901 12.4457 11.1181 11.9969 11.1181C11.5481 11.1181 11.1087 10.9901 10.7301 10.749C10.4513 10.5667 10.1253 10.4696 9.79217 10.4696C9.45901 10.4696 9.13306 10.5667 8.85423 10.749C8.47961 10.9986 8.03748 11.1275 7.58742 11.1181C7.13735 11.1275 6.69523 10.9986 6.3206 10.749C6.04573 10.5583 5.71711 10.4603 5.38266 10.4695C5.04832 10.4604 4.71981 10.5583 4.44504 10.749C4.07101 10.9984 3.62959 11.1272 3.18017 11.1181C2.73 11.1275 2.28778 10.9986 1.91304 10.749C1.63761 10.5579 1.30825 10.4599 0.973145 10.4695V9.82081C1.42321 9.81151 1.86532 9.94031 2.23996 10.1899C2.51508 10.3806 2.8439 10.4786 3.17855 10.4695C3.51289 10.4785 3.8414 10.3806 4.11617 10.1899C4.4902 9.94056 4.93161 9.81176 5.38104 9.82081C5.83144 9.81124 6.27393 9.94006 6.64882 10.1899C6.9238 10.3807 7.25253 10.4786 7.58709 10.4695C7.92165 10.4786 8.25039 10.3807 8.52536 10.1899C8.9039 9.9488 9.34338 9.82073 9.79217 9.82073C10.241 9.82073 10.6804 9.9488 11.059 10.1899C11.3379 10.3723 11.6639 10.4694 11.9971 10.4694C12.3303 10.4694 12.6563 10.3723 12.9352 10.1899C13.3137 9.9488 13.7532 9.82073 14.202 9.82073C14.6508 9.82073 15.0903 9.9488 15.4688 10.1899C15.7477 10.3723 16.0737 10.4694 16.4069 10.4694C16.7402 10.4694 17.0662 10.3723 17.345 10.1899C17.724 9.94889 18.1637 9.82089 18.6128 9.82089C19.0619 9.82089 19.5017 9.94889 19.8806 10.1899C20.16 10.3722 20.4864 10.4693 20.82 10.4693C21.1536 10.4693 21.48 10.3722 21.7594 10.1899C22.1345 9.94046 22.5769 9.81168 23.0272 9.82081V10.4695C22.6919 10.46 22.3623 10.5579 22.0867 10.749C21.7118 10.9983 21.2696 11.1271 20.8195 11.1181Z" fill="white"/>
<path d="M16.1977 10.8428L15.5857 10.6281C15.7433 10.1753 15.8077 9.69521 15.775 9.21683C15.7423 8.73844 15.6131 8.27162 15.3953 7.84445L13.1675 3.48196C13.1455 3.43888 13.1335 3.39142 13.1322 3.34307C13.1309 3.29472 13.1404 3.24669 13.1601 3.2025C13.1798 3.15831 13.2091 3.11909 13.2459 3.0877C13.2827 3.05631 13.3261 3.03356 13.3728 3.02109L17.8125 1.83731C17.9572 1.79948 18.0811 1.70604 18.1572 1.57733C18.2333 1.44862 18.2556 1.29505 18.2191 1.15003C18.1826 1.00501 18.0903 0.880281 17.9622 0.802969C17.8342 0.725657 17.6809 0.702021 17.5355 0.737204L12.1621 2.02153C12.0473 2.04867 11.9402 2.1019 11.8492 2.17708C11.7582 2.25226 11.6857 2.34737 11.6374 2.45506C11.5891 2.56275 11.5662 2.68012 11.5705 2.79807C11.5748 2.91602 11.6063 3.0314 11.6623 3.13526L13.258 6.09958C13.2985 6.17492 13.3076 6.2632 13.2833 6.3452C13.259 6.4272 13.2033 6.49629 13.1283 6.53742L11.0688 7.67255L10.7559 7.10434L12.5338 6.12423L11.0919 3.44272C10.9887 3.25129 10.931 3.0387 10.9231 2.8214C10.9152 2.60409 10.9574 2.38788 11.0465 2.1895C11.1355 1.99111 11.269 1.81586 11.4366 1.67729C11.6041 1.53873 11.8014 1.44057 12.0129 1.39039L17.3838 0.106393C17.6964 0.0273873 18.0277 0.0758247 18.3046 0.241049C18.5816 0.406274 18.7816 0.674751 18.8606 0.98742C18.9396 1.30009 18.8911 1.63134 18.7259 1.90829C18.5607 2.18525 18.2922 2.38522 17.9795 2.46423L13.9274 3.54423L15.9733 7.54899C16.2309 8.0545 16.3836 8.60691 16.4221 9.17297C16.4607 9.73902 16.3844 10.307 16.1977 10.8428Z" fill="white"/>
<path d="M9.62241 7.73426L5.68115 9.90601L5.99404 10.4738L9.9353 8.30209L9.62241 7.73426Z" fill="white"/>
<path d="M19.1356 8.68517C18.6545 8.68517 18.1842 8.54252 17.7842 8.27524C17.3842 8.00796 17.0724 7.62806 16.8883 7.1836C16.7042 6.73913 16.656 6.25005 16.7499 5.7782C16.8437 5.30636 17.0754 4.87294 17.4156 4.53276C17.7557 4.19257 18.1892 3.96091 18.661 3.86705C19.1329 3.7732 19.6219 3.82137 20.0664 4.00547C20.5109 4.18958 20.8908 4.50135 21.158 4.90136C21.4253 5.30137 21.568 5.77165 21.568 6.25274C21.5673 6.89765 21.3108 7.51595 20.8548 7.97197C20.3988 8.428 19.7805 8.68449 19.1356 8.68517ZM19.1356 4.46896C18.7828 4.46896 18.4379 4.57358 18.1445 4.76958C17.8512 4.96559 17.6226 5.24418 17.4876 5.57012C17.3525 5.89606 17.3172 6.25472 17.386 6.60074C17.4549 6.94676 17.6248 7.2646 17.8742 7.51407C18.1237 7.76354 18.4415 7.93342 18.7876 8.00225C19.1336 8.07108 19.4922 8.03575 19.8182 7.90074C20.1441 7.76573 20.4227 7.5371 20.6187 7.24376C20.8147 6.95042 20.9193 6.60554 20.9193 6.25274C20.9187 5.77984 20.7306 5.32648 20.3962 4.99208C20.0618 4.65769 19.6085 4.46956 19.1356 4.46896Z" fill="white"/>
</svg>
